<svg xmlns="http://www.w3.org/2000/svg" width="805" height="600"><rect width="805" height="600" x="0" y="0" fill="#FFFFFF" id="backgorund"/><g id="viz"><g transform="translate(0,0)"><g id="pie" transform="translate(67.08333333333333,64)"><path fill="#1f77b4" stroke="#FFFFFF" d="M6.590616733077036e-16,-10.76329393530556A10.76329393530556,10.76329393530556,0,0,1,6.756038040864121,-8.378809362205487L0,0Z"/><path fill="#ff7f0e" stroke="#FFFFFF" d="M6.756038040864121,-8.378809362205487A10.76329393530556,10.76329393530556,0,0,1,6.912748465328627,8.24999424199085L0,0Z"/><path fill="#2ca02c" stroke="#FFFFFF" d="M6.912748465328627,8.24999424199085A10.76329393530556,10.76329393530556,0,1,1,-1.9771850199231107e-15,-10.76329393530556L0,0Z"/></g><text y="49.23670606469444" x="67.08333333333333" style="font-family: Arial, sans-serif; font-size: 12px; fill: black; font-weight: bold; dominant-baseline: auto; text-anchor: middle;">Argentina</text></g><g transform="translate(134.16666666666666,0)"><g id="pie" transform="translate(67.08333333333333,64)"><path fill="#1f77b4" stroke="#FFFFFF" d="M7.671165934882613e-16,-12.527964700064668A12.527964700064668,12.527964700064668,0,0,1,2.806897289381607,-12.209472844186541L0,0Z"/><path fill="#ff7f0e" stroke="#FFFFFF" d="M2.806897289381607,-12.209472844186541A12.527964700064668,12.527964700064668,0,0,1,12.159205080088533,3.0172224555732794L0,0Z"/><path fill="#2ca02c" stroke="#FFFFFF" d="M12.159205080088533,3.0172224555732794A12.527964700064668,12.527964700064668,0,1,1,-2.301349780464784e-15,-12.527964700064668L0,0Z"/></g><text y="47.47203529993533" x="67.08333333333333" style="font-family: Arial, sans-serif; font-size: 12px; fill: black; font-weight: bold; dominant-baseline: auto; text-anchor: middle;">Australia</text></g><g transform="translate(268.3333333333333,0)"><g id="pie" transform="translate(67.08333333333333,64)"><path fill="#1f77b4" stroke="#FFFFFF" d="M1.2369298094188302e-15,-20.20059678072125A20.20059678072125,20.20059678072125,0,0,1,8.138950448209288,-18.488417885229648L0,0Z"/><path fill="#ff7f0e" stroke="#FFFFFF" d="M8.138950448209288,-18.488417885229648A20.20059678072125,20.20059678072125,0,0,1,19.99002815572334,2.909103750414171L0,0Z"/><path fill="#2ca02c" stroke="#FFFFFF" d="M19.99002815572334,2.909103750414171A20.20059678072125,20.20059678072125,0,1,1,-3.71078942825649e-15,-20.20059678072125L0,0Z"/></g><text y="39.79940321927875" x="67.08333333333333" style="font-family: Arial, sans-serif; font-size: 12px; fill: black; font-weight: bold; dominant-baseline: auto; text-anchor: middle;">Brazil</text></g><g transform="translate(402.5,0)"><g id="pie" transform="translate(67.08333333333333,64)"><path fill="#1f77b4" stroke="#FFFFFF" d="M9.141424008984286e-16,-14.929078351976914A14.929078351976914,14.929078351976914,0,0,1,1.4983079045525525,-14.853701688892944L0,0Z"/><path fill="#ff7f0e" stroke="#FFFFFF" d="M1.4983079045525525,-14.853701688892944A14.929078351976914,14.929078351976914,0,0,1,14.255247604047398,4.434557045158694L0,0Z"/><path fill="#2ca02c" stroke="#FFFFFF" d="M14.255247604047398,4.434557045158694A14.929078351976914,14.929078351976914,0,1,1,-2.7424272026952853e-15,-14.929078351976914L0,0Z"/></g><text y="45.07092164802309" x="67.08333333333333" style="font-family: Arial, sans-serif; font-size: 12px; fill: black; font-weight: bold; dominant-baseline: auto; text-anchor: middle;">Canada</text></g><g transform="translate(536.6666666666666,0)"><g id="pie" transform="translate(67.08333333333333,64)"><path fill="#1f77b4" stroke="#FFFFFF" d="M3.3065463576978537e-15,-54A54,54,0,0,1,25.716862998068713,-47.483080750290036L0,0Z"/><path fill="#ff7f0e" stroke="#FFFFFF" d="M25.716862998068713,-47.483080750290036A54,54,0,0,1,5.419532601965605,53.72735491699021L0,0Z"/><path fill="#2ca02c" stroke="#FFFFFF" d="M5.419532601965605,53.72735491699021A54,54,0,1,1,-9.91963907309356e-15,-54L0,0Z"/></g><text y="6" x="67.08333333333333" style="font-family: Arial, sans-serif; font-size: 12px; fill: black; font-weight: bold; dominant-baseline: auto; text-anchor: middle;">China</text></g><g transform="translate(670.8333333333334,0)"><g id="pie" transform="translate(67.08333333333333,64)"><path fill="#1f77b4" stroke="#FFFFFF" d="M7.530959102119435e-16,-12.298989565583778A12.298989565583778,12.298989565583778,0,0,1,8.24875490761266,-9.122674323271367L0,0Z"/><path fill="#ff7f0e" stroke="#FFFFFF" d="M8.24875490761266,-9.122674323271367A12.298989565583778,12.298989565583778,0,0,1,3.0586343273067556,11.912594192121185L0,0Z"/><path fill="#2ca02c" stroke="#FFFFFF" d="M3.0586343273067556,11.912594192121185A12.298989565583778,12.298989565583778,0,1,1,-2.2592877306358303e-15,-12.298989565583778L0,0Z"/></g><text y="47.70101043441622" x="67.08333333333333" style="font-family: Arial, sans-serif; font-size: 12px; fill: black; font-weight: bold; dominant-baseline: auto; text-anchor: middle;">Egypt</text></g><g transform="translate(0,120)"><g id="pie" transform="translate(67.08333333333333,64)"><path fill="#1f77b4" stroke="#FFFFFF" d="M3.0961000339124806e-15,-50.563150715261024A50.563150715261024,50.563150715261024,0,0,1,5.198953574949776,-50.29515972715186L0,0Z"/><path fill="#ff7f0e" stroke="#FFFFFF" d="M5.198953574949776,-50.29515972715186A50.563150715261024,50.563150715261024,0,0,1,50.009894486400434,7.459401029124025L0,0Z"/><path fill="#2ca02c" stroke="#FFFFFF" d="M50.009894486400434,7.459401029124025A50.563150715261024,50.563150715261024,0,1,1,-5.4197399399077235e-14,-50.563150715261024L0,0Z"/></g><text y="9.436849284738976" x="67.08333333333333" style="font-family: Arial, sans-serif; font-size: 12px; fill: black; font-weight: bold; dominant-baseline: auto; text-anchor: middle;">European Union</text></g><g transform="translate(134.16666666666666,120)"><g id="pie" transform="translate(67.08333333333333,64)"><path fill="#1f77b4" stroke="#FFFFFF" d="M1.1598882453961562e-15,-18.942412558522435A18.942412558522435,18.942412558522435,0,0,1,2.0194724676222577,-18.834455778964895L0,0Z"/><path fill="#ff7f0e" stroke="#FFFFFF" d="M2.0194724676222577,-18.834455778964895A18.942412558522435,18.942412558522435,0,0,1,18.405049139821838,-4.479861571300162L0,0Z"/><path fill="#2ca02c" stroke="#FFFFFF" d="M18.405049139821838,-4.479861571300162A18.942412558522435,18.942412558522435,0,1,1,-3.4796647361884684e-15,-18.942412558522435L0,0Z"/></g><text y="41.057587441477565" x="67.08333333333333" style="font-family: Arial, sans-serif; font-size: 12px; fill: black; font-weight: bold; dominant-baseline: auto; text-anchor: middle;">France</text></g><g transform="translate(268.3333333333333,120)"><g id="pie" transform="translate(67.08333333333333,64)"><path fill="#1f77b4" stroke="#FFFFFF" d="M1.406403643938061e-15,-22.96831453635863A22.96831453635863,22.96831453635863,0,0,1,1.0098735710965525,-22.946102675868595L0,0Z"/><path fill="#ff7f0e" stroke="#FFFFFF" d="M1.0098735710965525,-22.946102675868595A22.96831453635863,22.96831453635863,0,0,1,21.136174516673677,8.989193481164891L0,0Z"/><path fill="#2ca02c" stroke="#FFFFFF" d="M21.136174516673677,8.989193481164891A22.96831453635863,22.96831453635863,0,1,1,-4.219210931814183e-15,-22.96831453635863L0,0Z"/></g><text y="37.03168546364137" x="67.08333333333333" style="font-family: Arial, sans-serif; font-size: 12px; fill: black; font-weight: bold; dominant-baseline: auto; text-anchor: middle;">Germany</text></g><g transform="translate(402.5,120)"><g id="pie" transform="translate(67.08333333333333,64)"><path fill="#1f77b4" stroke="#FFFFFF" d="M2.1114776071439052e-15,-34.483046191179334A34.483046191179334,34.483046191179334,0,0,1,28.416845812715877,-19.53364657915515L0,0Z"/><path fill="#ff7f0e" stroke="#FFFFFF" d="M28.416845812715877,-19.53364657915515A34.483046191179334,34.483046191179334,0,0,1,22.903927586227493,25.777714711507205L0,0Z"/><path fill="#2ca02c" stroke="#FFFFFF" d="M22.903927586227493,25.777714711507205A34.483046191179334,34.483046191179334,0,1,1,-6.334432821431715e-15,-34.483046191179334L0,0Z"/></g><text y="25.516953808820666" x="67.08333333333333" style="font-family: Arial, sans-serif; font-size: 12px; fill: black; font-weight: bold; dominant-baseline: auto; text-anchor: middle;">India</text></g><g transform="translate(536.6666666666666,120)"><g id="pie" transform="translate(67.08333333333333,64)"><path fill="#1f77b4" stroke="#FFFFFF" d="M1.2379290796580836e-15,-20.21691610217702A20.21691610217702,20.21691610217702,0,0,1,15.32040124824019,-13.191247184227308L0,0Z"/><path fill="#ff7f0e" stroke="#FFFFFF" d="M15.32040124824019,-13.191247184227308A20.21691610217702,20.21691610217702,0,0,1,-5.817409860147062,19.361855262384548L0,0Z"/><path fill="#2ca02c" stroke="#FFFFFF" d="M-5.817409860147062,19.361855262384548A20.21691610217702,20.21691610217702,0,0,1,-3.713787238974251e-15,-20.21691610217702L0,0Z"/></g><text y="39.783083897822976" x="67.08333333333333" style="font-family: Arial, sans-serif; font-size: 12px; fill: black; font-weight: bold; dominant-baseline: auto; text-anchor: middle;">Indonesia</text></g><g transform="translate(670.8333333333334,120)"><g id="pie" transform="translate(67.08333333333333,64)"><path fill="#1f77b4" stroke="#FFFFFF" d="M8.784998947285703e-16,-14.346992052569217A14.346992052569217,14.346992052569217,0,0,1,8.145735524919102,-11.810299476074057L0,0Z"/><path fill="#ff7f0e" stroke="#FFFFFF" d="M8.145735524919102,-11.810299476074057A14.346992052569217,14.346992052569217,0,0,1,4.480637987566461,13.629382384424492L0,0Z"/><path fill="#2ca02c" stroke="#FFFFFF" d="M4.480637987566461,13.629382384424492A14.346992052569217,14.346992052569217,0,1,1,-2.635499684185711e-15,-14.346992052569217L0,0Z"/></g><text y="45.65300794743078" x="67.08333333333333" style="font-family: Arial, sans-serif; font-size: 12px; fill: black; font-weight: bold; dominant-baseline: auto; text-anchor: middle;">Iran</text></g><g transform="translate(0,240)"><g id="pie" transform="translate(67.08333333333333,64)"><path fill="#1f77b4" stroke="#FFFFFF" d="M1.0441978788423394e-15,-17.053045491473142A17.053045491473142,17.053045491473142,0,0,1,2.2458057515265843,-16.90451765241063L0,0Z"/><path fill="#ff7f0e" stroke="#FFFFFF" d="M2.2458057515265843,-16.90451765241063A17.053045491473142,17.053045491473142,0,0,1,17.01762145635102,1.0985993366982454L0,0Z"/><path fill="#2ca02c" stroke="#FFFFFF" d="M17.01762145635102,1.0985993366982454A17.053045491473142,17.053045491473142,0,1,1,-3.1325936365270178e-15,-17.053045491473142L0,0Z"/></g><text y="42.94695450852686" x="67.08333333333333" style="font-family: Arial, sans-serif; font-size: 12px; fill: black; font-weight: bold; dominant-baseline: auto; text-anchor: middle;">Italy</text></g><g transform="translate(134.16666666666666,240)"><g id="pie" transform="translate(67.08333333333333,64)"><path fill="#1f77b4" stroke="#FFFFFF" d="M1.6004383774458423e-15,-26.137142212107683A26.137142212107683,26.137142212107683,0,0,1,1.8068356695610204,-26.074615009221965L0,0Z"/><path fill="#ff7f0e" stroke="#FFFFFF" d="M1.8068356695610204,-26.074615009221965A26.137142212107683,26.137142212107683,0,0,1,24.159349354555143,9.973767682300272L0,0Z"/><path fill="#2ca02c" stroke="#FFFFFF" d="M24.159349354555143,9.973767682300272A26.137142212107683,26.137142212107683,0,1,1,-2.8015760797764762e-14,-26.137142212107683L0,0Z"/></g><text y="33.86285778789232" x="67.08333333333333" style="font-family: Arial, sans-serif; font-size: 12px; fill: black; font-weight: bold; dominant-baseline: auto; text-anchor: middle;">Japan</text></g><g transform="translate(268.3333333333333,240)"><g id="pie" transform="translate(67.08333333333333,64)"><path fill="#1f77b4" stroke="#FFFFFF" d="M9.781028471167956e-16,-15.973631708306245A15.973631708306245,15.973631708306245,0,0,1,2.205393986938556,-15.82065571697273L0,0Z"/><path fill="#ff7f0e" stroke="#FFFFFF" d="M2.205393986938556,-15.82065571697273A15.973631708306245,15.973631708306245,0,0,1,8.059283163378229,13.791477978994669L0,0Z"/><path fill="#2ca02c" stroke="#FFFFFF" d="M8.059283163378229,13.791477978994669A15.973631708306245,15.973631708306245,0,1,1,-2.9343085413503863e-15,-15.973631708306245L0,0Z"/></g><text y="44.02636829169376" x="67.08333333333333" style="font-family: Arial, sans-serif; font-size: 12px; fill: black; font-weight: bold; dominant-baseline: auto; text-anchor: middle;">Korea, South</text></g><g transform="translate(402.5,240)"><g id="pie" transform="translate(67.08333333333333,64)"><path fill="#1f77b4" stroke="#FFFFFF" d="M6.630521361623511e-16,-10.828463139314842A10.828463139314842,10.828463139314842,0,0,1,5.686809307339673,-9.214977691858788L0,0Z"/><path fill="#ff7f0e" stroke="#FFFFFF" d="M5.686809307339673,-9.214977691858788A10.828463139314842,10.828463139314842,0,0,1,2.4285218766972565,10.55262505037979L0,0Z"/><path fill="#2ca02c" stroke="#FFFFFF" d="M2.4285218766972565,10.55262505037979A10.828463139314842,10.828463139314842,0,1,1,-1.989156408487053e-15,-10.828463139314842L0,0Z"/></g><text y="49.17153686068516" x="67.08333333333333" style="font-family: Arial, sans-serif; font-size: 12px; fill: black; font-weight: bold; dominant-baseline: auto; text-anchor: middle;">Malaysia</text></g><g transform="translate(536.6666666666666,240)"><g id="pie" transform="translate(67.08333333333333,64)"><path fill="#1f77b4" stroke="#FFFFFF" d="M1.0771328017030853e-15,-17.590913599791012A17.590913599791012,17.590913599791012,0,0,1,3.9451275788199482,-17.142818019863206L0,0Z"/><path fill="#ff7f0e" stroke="#FFFFFF" d="M3.9451275788199482,-17.142818019863206A17.590913599791012,17.590913599791012,0,0,1,13.899548553142564,10.781595025511987L0,0Z"/><path fill="#2ca02c" stroke="#FFFFFF" d="M13.899548553142564,10.781595025511987A17.590913599791012,17.590913599791012,0,1,1,-3.231398405109256e-15,-17.590913599791012L0,0Z"/></g><text y="42.40908640020899" x="67.08333333333333" style="font-family: Arial, sans-serif; font-size: 12px; fill: black; font-weight: bold; dominant-baseline: auto; text-anchor: middle;">Mexico</text></g><g transform="translate(670.8333333333334,240)"><g id="pie" transform="translate(67.08333333333333,64)"><path fill="#1f77b4" stroke="#FFFFFF" d="M6.249759249362274e-16,-10.206631420118192A10.206631420118192,10.206631420118192,0,0,1,1.1414804624508736,-10.14260061818402L0,0Z"/><path fill="#ff7f0e" stroke="#FFFFFF" d="M1.1414804624508736,-10.14260061818402A10.206631420118192,10.206631420118192,0,0,1,9.993149728123754,-2.076603827754361L0,0Z"/><path fill="#2ca02c" stroke="#FFFFFF" d="M9.993149728123754,-2.076603827754361A10.206631420118192,10.206631420118192,0,1,1,-1.874927774808682e-15,-10.206631420118192L0,0Z"/></g><text y="49.79336857988181" x="67.08333333333333" style="font-family: Arial, sans-serif; font-size: 12px; fill: black; font-weight: bold; dominant-baseline: auto; text-anchor: middle;">Netherlands</text></g><g transform="translate(0,360)"><g id="pie" transform="translate(67.08333333333333,64)"><path fill="#1f77b4" stroke="#FFFFFF" d="M7.26674385342818e-16,-11.867493318869686A11.867493318869686,11.867493318869686,0,0,1,11.512970902304119,-2.879044750627421L0,0Z"/><path fill="#ff7f0e" stroke="#FFFFFF" d="M11.512970902304119,-2.879044750627421A11.867493318869686,11.867493318869686,0,0,1,4.644624376372029,10.920845300425576L0,0Z"/><path fill="#2ca02c" stroke="#FFFFFF" d="M4.644624376372029,10.920845300425576A11.867493318869686,11.867493318869686,0,1,1,-2.180023156028454e-15,-11.867493318869686L0,0Z"/></g><text y="48.132506681130316" x="67.08333333333333" style="font-family: Arial, sans-serif; font-size: 12px; fill: black; font-weight: bold; dominant-baseline: auto; text-anchor: middle;">Nigeria</text></g><g transform="translate(134.16666666666666,360)"><g id="pie" transform="translate(67.08333333333333,64)"><path fill="#1f77b4" stroke="#FFFFFF" d="M7.069598300830152e-16,-11.54553019818005A11.54553019818005,11.54553019818005,0,0,1,11.53732678309534,-0.4351531421906527L0,0Z"/><path fill="#ff7f0e" stroke="#FFFFFF" d="M11.53732678309534,-0.4351531421906527A11.54553019818005,11.54553019818005,0,0,1,4.585282964467371,10.595963745353831L0,0Z"/><path fill="#2ca02c" stroke="#FFFFFF" d="M4.585282964467371,10.595963745353831A11.54553019818005,11.54553019818005,0,1,1,-2.1208794902490453e-15,-11.54553019818005L0,0Z"/></g><text y="48.454469801819954" x="67.08333333333333" style="font-family: Arial, sans-serif; font-size: 12px; fill: black; font-weight: bold; dominant-baseline: auto; text-anchor: middle;">Pakistan</text></g><g transform="translate(268.3333333333333,360)"><g id="pie" transform="translate(67.08333333333333,64)"><path fill="#1f77b4" stroke="#FFFFFF" d="M6.428155250689372e-16,-10.497974199850772A10.497974199850772,10.497974199850772,0,0,1,5.955162407259533,-8.645432493744618L0,0Z"/><path fill="#ff7f0e" stroke="#FFFFFF" d="M5.955162407259533,-8.645432493744618A10.497974199850772,10.497974199850772,0,0,1,6.0633678927667685,8.56989102017625L0,0Z"/><path fill="#2ca02c" stroke="#FFFFFF" d="M6.0633678927667685,8.56989102017625A10.497974199850772,10.497974199850772,0,1,1,-1.9284465752068116e-15,-10.497974199850772L0,0Z"/></g><text y="49.50202580014923" x="67.08333333333333" style="font-family: Arial, sans-serif; font-size: 12px; fill: black; font-weight: bold; dominant-baseline: auto; text-anchor: middle;">Philippines</text></g><g transform="translate(402.5,360)"><g id="pie" transform="translate(67.08333333333333,64)"><path fill="#1f77b4" stroke="#FFFFFF" d="M7.282931763561239e-16,-11.893930182370786A11.893930182370786,11.893930182370786,0,0,1,1.786772668607805,-11.758954826591815L0,0Z"/><path fill="#ff7f0e" stroke="#FFFFFF" d="M1.786772668607805,-11.758954826591815A11.893930182370786,11.893930182370786,0,0,1,5.333038667121716,10.631287492966004L0,0Z"/><path fill="#2ca02c" stroke="#FFFFFF" d="M5.333038667121716,10.631287492966004A11.893930182370786,11.893930182370786,0,1,1,-2.1848795290683716e-15,-11.893930182370786L0,0Z"/></g><text y="48.10606981762921" x="67.08333333333333" style="font-family: Arial, sans-serif; font-size: 12px; fill: black; font-weight: bold; dominant-baseline: auto; text-anchor: middle;">Poland</text></g><g transform="translate(536.6666666666666,360)"><g id="pie" transform="translate(67.08333333333333,64)"><path fill="#1f77b4" stroke="#FFFFFF" d="M1.371282993340392e-15,-22.394750785208153A22.394750785208153,22.394750785208153,0,0,1,6.555863845450355,-21.41367581643792L0,0Z"/><path fill="#ff7f0e" stroke="#FFFFFF" d="M6.555863845450355,-21.41367581643792A22.394750785208153,22.394750785208153,0,0,1,16.009678938917222,15.659343632616647L0,0Z"/><path fill="#2ca02c" stroke="#FFFFFF" d="M16.009678938917222,15.659343632616647A22.394750785208153,22.394750785208153,0,1,1,-4.113848980021176e-15,-22.394750785208153L0,0Z"/></g><text y="37.60524921479185" x="67.08333333333333" style="font-family: Arial, sans-serif; font-size: 12px; fill: black; font-weight: bold; dominant-baseline: auto; text-anchor: middle;">Russia</text></g><g transform="translate(670.8333333333334,360)"><g id="pie" transform="translate(67.08333333333333,64)"><path fill="#1f77b4" stroke="#FFFFFF" d="M9.144000146560855e-16,-14.933285503913886A14.933285503913886,14.933285503913886,0,0,1,2.428707221402405,-14.734462907554942L0,0Z"/><path fill="#ff7f0e" stroke="#FFFFFF" d="M2.428707221402405,-14.734462907554942A14.933285503913886,14.933285503913886,0,0,1,2.982326157002719,14.632455249706455L0,0Z"/><path fill="#2ca02c" stroke="#FFFFFF" d="M2.982326157002719,14.632455249706455A14.933285503913886,14.933285503913886,0,1,1,-2.7432000439682564e-15,-14.933285503913886L0,0Z"/></g><text y="45.066714496086114" x="67.08333333333333" style="font-family: Arial, sans-serif; font-size: 12px; fill: black; font-weight: bold; dominant-baseline: auto; text-anchor: middle;">Saudi Arabia</text></g><g transform="translate(0,480)"><g id="pie" transform="translate(67.08333333333333,64)"><path fill="#1f77b4" stroke="#FFFFFF" d="M9.151724208318164e-16,-14.945899854047632A14.945899854047632,14.945899854047632,0,0,1,2.4307587835489333,-14.746909309527224L0,0Z"/><path fill="#ff7f0e" stroke="#FFFFFF" d="M2.4307587835489333,-14.746909309527224A14.945899854047632,14.945899854047632,0,0,1,14.927022533969852,0.7509465477497402L0,0Z"/><path fill="#2ca02c" stroke="#FFFFFF" d="M14.927022533969852,0.7509465477497402A14.945899854047632,14.945899854047632,0,1,1,-2.7455172624954485e-15,-14.945899854047632L0,0Z"/></g><text y="45.05410014595237" x="67.08333333333333" style="font-family: Arial, sans-serif; font-size: 12px; fill: black; font-weight: bold; dominant-baseline: auto; text-anchor: middle;">Spain</text></g><g transform="translate(134.16666666666666,480)"><g id="pie" transform="translate(67.08333333333333,64)"><path fill="#1f77b4" stroke="#FFFFFF" d="M7.480157064879247e-16,-12.216023542603834A12.216023542603834,12.216023542603834,0,0,1,1.3800303929589406,-12.137823005298797L0,0Z"/><path fill="#ff7f0e" stroke="#FFFFFF" d="M1.3800303929589406,-12.137823005298797A12.216023542603834,12.216023542603834,0,0,1,8.452741513472374,8.819432640474776L0,0Z"/><path fill="#2ca02c" stroke="#FFFFFF" d="M8.452741513472374,8.819432640474776A12.216023542603834,12.216023542603834,0,1,1,-2.244047119463774e-15,-12.216023542603834L0,0Z"/></g><text y="47.783976457396165" x="67.08333333333333" style="font-family: Arial, sans-serif; font-size: 12px; fill: black; font-weight: bold; dominant-baseline: auto; text-anchor: middle;">Taiwan</text></g><g transform="translate(268.3333333333333,480)"><g id="pie" transform="translate(67.08333333333333,64)"><path fill="#1f77b4" stroke="#FFFFFF" d="M7.630382007635961e-16,-12.46135949230183A12.46135949230183,12.46135949230183,0,0,1,6.140052534719449,-10.84367259129794L0,0Z"/><path fill="#ff7f0e" stroke="#FFFFFF" d="M6.140052534719449,-10.84367259129794A12.46135949230183,12.46135949230183,0,0,1,4.294719362155423,11.697900067820216L0,0Z"/><path fill="#2ca02c" stroke="#FFFFFF" d="M4.294719362155423,11.697900067820216A12.46135949230183,12.46135949230183,0,1,1,-2.289114602290788e-15,-12.46135949230183L0,0Z"/></g><text y="47.53864050769817" x="67.08333333333333" style="font-family: Arial, sans-serif; font-size: 12px; fill: black; font-weight: bold; dominant-baseline: auto; text-anchor: middle;">Thailand</text></g><g transform="translate(402.5,480)"><g id="pie" transform="translate(67.08333333333333,64)"><path fill="#1f77b4" stroke="#FFFFFF" d="M1.0137418952605253e-15,-16.55566153386155A16.55566153386155,16.55566153386155,0,0,1,6.8731604504343204,-15.061526956001787L0,0Z"/><path fill="#ff7f0e" stroke="#FFFFFF" d="M6.8731604504343204,-15.061526956001787A16.55566153386155,16.55566153386155,0,0,1,10.409362288459226,12.873814724912963L0,0Z"/><path fill="#2ca02c" stroke="#FFFFFF" d="M10.409362288459226,12.873814724912963A16.55566153386155,16.55566153386155,0,1,1,-3.0412256857815757e-15,-16.55566153386155L0,0Z"/></g><text y="43.44433846613845" x="67.08333333333333" style="font-family: Arial, sans-serif; font-size: 12px; fill: black; font-weight: bold; dominant-baseline: auto; text-anchor: middle;">Turkey</text></g><g transform="translate(536.6666666666666,480)"><g id="pie" transform="translate(67.08333333333333,64)"><path fill="#1f77b4" stroke="#FFFFFF" d="M1.174402642042668e-15,-19.179450644223834A19.179450644223834,19.179450644223834,0,0,1,0.842442455758397,-19.160939896647914L0,0Z"/><path fill="#ff7f0e" stroke="#FFFFFF" d="M0.842442455758397,-19.160939896647914A19.179450644223834,19.179450644223834,0,0,1,18.540131058549726,-4.910689090750703L0,0Z"/><path fill="#2ca02c" stroke="#FFFFFF" d="M18.540131058549726,-4.910689090750703A19.179450644223834,19.179450644223834,0,1,1,1.351156623777527e-14,-19.179450644223834L0,0Z"/></g><text y="40.820549355776166" x="67.08333333333333" style="font-family: Arial, sans-serif; font-size: 12px; fill: black; font-weight: bold; dominant-baseline: auto; text-anchor: middle;">United Kingdom</text></g><g transform="translate(670.8333333333334,480)"><g id="pie" transform="translate(67.08333333333333,64)"><path fill="#1f77b4" stroke="#FFFFFF" d="M3.030002349163914e-15,-49.48369360494013A49.48369360494013,49.48369360494013,0,0,1,2.79674584330875,-49.4045964002898L0,0Z"/><path fill="#ff7f0e" stroke="#FFFFFF" d="M2.79674584330875,-49.4045964002898A49.48369360494013,49.48369360494013,0,0,1,47.06178925333113,-15.291302268369405L0,0Z"/><path fill="#2ca02c" stroke="#FFFFFF" d="M47.06178925333113,-15.291302268369405A49.48369360494013,49.48369360494013,0,1,1,-9.090007047491742e-15,-49.48369360494013L0,0Z"/></g><text y="10.516306395059871" x="67.08333333333333" style="font-family: Arial, sans-serif; font-size: 12px; fill: black; font-weight: bold; dominant-baseline: auto; text-anchor: middle;">United States</text></g></g></svg>